<?xml version="1.0" encoding="UTF-8"?>
<svg width="55px" height="55px" viewBox="0 0 55 55" version="1.1" xmlns="http://www.w3.org/2000/svg" xmlns:xlink="http://www.w3.org/1999/xlink">
    <!-- Generator: Sketch 47.1 (45422) - http://www.bohemiancoding.com/sketch -->
    <title>Chevron_CTA / Purple</title>
    <desc>Created with Sketch.</desc>
    <defs>
        <path d="M34.2226231,36.7875514 C33.9494062,37.0708162 33.5043938,37.0708162 33.2291071,36.7875514 L25.2064651,28.5126248 C24.9311783,28.22936 24.9311783,27.77064 25.2064651,27.4884322 L33.2291071,19.2124486 C33.5043938,18.9291838 33.9473364,18.9291838 34.2215882,19.2124486 C34.4968749,19.4957134 34.4968749,19.9533764 34.2226231,20.2366412 L26.9057914,28 L34.2215882,35.7633588 C34.4968749,36.0466236 34.4979098,36.5042866 34.2226231,36.7875514 Z" id="path-1"></path>
    </defs>
    <g id="Symbols" stroke="none" stroke-width="1" fill="none" fill-rule="evenodd">
        <g id="Chevron_CTA-/-Purple">
            <circle id="Oval-Copy" fill="#1E185A" transform="translate(27.500000, 27.500000) scale(-1, 1) translate(-27.500000, -27.500000) " cx="27.5" cy="27.5" r="27.5"></circle>
            <g id="Shape-Copy" transform="translate(29.714286, 28.000000) scale(-1, 1) translate(-29.714286, -28.000000) ">
                <use fill="#FFFFFF" fill-rule="evenodd" xlink:href="#path-1"></use>
                <path stroke="#FFFFFF" stroke-width="0.75" d="M27.4210776,28.0000193 L34.4905133,35.5020079 C34.9072698,35.9308424 34.9082326,36.6201419 34.4915482,37.0489023 L34.492532,37.0478861 C34.0720146,37.4838686 33.3828976,37.4838686 32.9598696,37.0485804 L24.9375399,28.7739757 C24.5207386,28.3450949 24.5207386,27.6543608 24.9372109,27.2274203 L32.960182,18.9510977 C33.382815,18.5162163 34.06947,18.5162163 34.4905133,18.9510977 C34.9069104,19.3795625 34.9073916,20.0684834 34.4955201,20.493842 L27.4210776,28.0000193 Z"></path>
            </g>
        </g>
    </g>
</svg>