<?xml version="1.0" encoding="UTF-8"?>
<svg width="55px" height="55px" viewBox="0 0 55 55" version="1.1" xmlns="http://www.w3.org/2000/svg" xmlns:xlink="http://www.w3.org/1999/xlink">
    <!-- Generator: Sketch 47.1 (45422) - http://www.bohemiancoding.com/sketch -->
    <title>Chevron_CTA / Purple / Down</title>
    <desc>Created with Sketch.</desc>
    <defs>
        <path d="M32.2226231,37.7875514 C31.9494062,38.0708162 31.5043938,38.0708162 31.2291071,37.7875514 L23.2064651,29.5126248 C22.9311783,29.22936 22.9311783,28.77064 23.2064651,28.4884322 L31.2291071,20.2124486 C31.5043938,19.9291838 31.9473364,19.9291838 32.2215882,20.2124486 C32.4968749,20.4957134 32.4968749,20.9533764 32.2226231,21.2366412 L24.9057914,29 L32.2215882,36.7633588 C32.4968749,37.0466236 32.4979098,37.5042866 32.2226231,37.7875514 Z" id="path-1"></path>
    </defs>
    <g id="Symbols" stroke="none" stroke-width="1" fill="none" fill-rule="evenodd">
        <g id="Chevron_CTA-/-Purple-/-Down">
            <circle id="Oval-Copy" fill="#1E185A" transform="translate(27.500000, 27.500000) scale(-1, 1) rotate(-180.000000) translate(-27.500000, -27.500000) " cx="27.5" cy="27.5" r="27.5"></circle>
            <g id="Shape-Copy" transform="translate(27.714286, 29.000000) scale(-1, 1) rotate(-90.000000) translate(-27.714286, -29.000000) ">
                <use fill="#FFFFFF" fill-rule="evenodd" xlink:href="#path-1"></use>
                <path stroke="#FFFFFF" stroke-width="0.75" d="M25.4210776,29.0000193 L32.4905133,36.5020079 C32.9072698,36.9308424 32.9082326,37.6201419 32.4915482,38.0489023 L32.492532,38.0478861 C32.0720146,38.4838686 31.3828976,38.4838686 30.9598696,38.0485804 L22.9375399,29.7739757 C22.5207386,29.3450949 22.5207386,28.6543608 22.9372109,28.2274203 L30.960182,19.9510977 C31.382815,19.5162163 32.06947,19.5162163 32.4905133,19.9510977 C32.9069104,20.3795625 32.9073916,21.0684834 32.4955201,21.493842 L25.4210776,29.0000193 Z"></path>
            </g>
        </g>
    </g>
</svg>