<svg width="55" height="55" viewBox="0 0 55 55" xmlns="http://www.w3.org/2000/svg" xmlns:xlink="http://www.w3.org/1999/xlink"><title>Chevron_CTA / White</title><defs><path d="M34.223 36.788a.687.687 0 0 1-.994 0l-8.023-8.275a.738.738 0 0 1 0-1.025l8.023-8.276a.686.686 0 0 1 .993 0 .74.74 0 0 1 0 1.025L26.907 28l7.316 7.763c.275.284.276.741 0 1.025z" id="a"/></defs><g fill="none" fill-rule="evenodd"><circle fill="#FFF" transform="matrix(-1 0 0 1 55 0)" cx="27.5" cy="27.5" r="27.5"/><g transform="matrix(-1 0 0 1 59.429 0)"><use fill="#1E185A" xlink:href="#a"/><path stroke="#1E185A" stroke-width=".75" d="M27.421 28l7.07 7.502c.416.429.417 1.118 0 1.547l.002-.001c-.421.436-1.11.436-1.533 0l-8.022-8.274a1.113 1.113 0 0 1 0-1.547l8.022-8.276a1.06 1.06 0 0 1 1.53 0c.417.429.417 1.117.006 1.543L27.42 28z"/></g></g></svg>